<?xml version="1.0" standalone="no"?>
<!DOCTYPE svg PUBLIC "-//W3C//DTD SVG 20010904//EN"
 "http://www.w3.org/TR/2001/REC-SVG-20010904/DTD/svg10.dtd">
<svg version="1.0" xmlns="http://www.w3.org/2000/svg"
 width="200.000000pt" height="200.000000pt" viewBox="0 0 500.000000 500.000000"
 preserveAspectRatio="xMidYMid meet">
<metadata>
Created by potrace 1.16, written by Peter Selinger 2001-2019
</metadata>
<g transform="translate(0.000000,500.000000) scale(0.100000,-0.100000)"
fill="#000000" stroke="none">
<path d="M2305 4280 c-618 -71 -1152 -452 -1420 -1012 -420 -882 -56 -1934
821 -2370 494 -247 1076 -250 1570 -8 299 146 527 344 709 615 291 433 378
965 240 1470 -117 430 -404 813 -785 1048 -182 112 -426 205 -635 242 -108 19
-388 27 -500 15z m507 -49 c256 -44 546 -171 753 -330 33 -25 104 -88 158
-140 279 -270 456 -614 518 -1006 21 -132 16 -429 -9 -567 -65 -356 -245 -692
-504 -944 -376 -365 -864 -540 -1384 -495 -405 35 -774 206 -1072 495 -449
437 -630 1075 -477 1686 77 304 224 567 449 799 281 289 658 474 1066 521 115
13 369 4 502 -19z"/>
<path d="M2445 4068 c-3 -7 -6 -49 -7 -93 l-3 -80 56 -3 c53 -3 58 -1 83 28
43 52 30 121 -29 145 -42 18 -94 19 -100 3z m110 -33 c30 -30 32 -64 4 -99
-17 -21 -29 -26 -66 -26 l-46 0 7 38 c3 20 6 54 6 75 0 36 1 37 35 37 25 0 44
-8 60 -25z"/>
<path d="M2225 3740 c-345 -74 -631 -274 -817 -571 -61 -98 -133 -269 -153
-367 -44 -210 -44 -369 1 -580 l4 -22 1217 2 1218 3 13 55 c20 77 21 393 3
485 -86 427 -374 773 -776 932 -158 63 -222 75 -430 79 -160 3 -204 1 -280
-16z m449 -31 c157 -21 363 -106 505 -207 253 -180 422 -441 487 -750 24 -115
26 -141 21 -277 -3 -82 -11 -169 -18 -192 -11 -42 -12 -43 -55 -43 l-44 0 0
80 c0 44 4 80 8 80 5 0 18 -11 30 -25 25 -29 40 -32 49 -9 4 10 -10 32 -41 63
-25 26 -46 51 -46 56 0 5 13 -5 29 -23 19 -20 35 -30 45 -26 25 10 19 26 -23
65 -21 21 -42 43 -46 50 -5 8 6 1 23 -15 31 -29 62 -30 62 -3 0 7 -20 33 -45
57 -24 24 -43 45 -41 47 2 3 15 -7 29 -21 29 -29 45 -33 53 -11 4 9 -16 36
-51 71 l-57 56 -54 -53 c-52 -51 -69 -89 -41 -89 8 0 24 11 37 25 13 14 28 25
34 25 6 0 -11 -22 -37 -48 -66 -67 -61 -119 5 -55 15 15 28 22 28 17 0 -6 -18
-28 -40 -49 -22 -21 -40 -45 -40 -51 0 -25 19 -24 51 3 l33 28 -18 -27 c-10
-15 -28 -34 -42 -43 -25 -16 -32 -49 -13 -61 6 -3 23 6 39 21 l28 27 4 -81 3
-81 -65 0 -65 0 -229 229 c-203 203 -227 230 -217 248 56 106 12 247 -93 297
-44 21 -147 21 -188 0 -30 -16 -31 -15 -71 23 -22 21 -49 48 -60 61 -50 60
-19 84 -511 -407 l-451 -451 -43 0 -42 0 0 132 0 132 54 -53 c50 -49 76 -59
76 -28 0 7 -29 42 -65 77 -45 45 -65 72 -65 89 0 23 4 21 54 -28 50 -49 76
-59 76 -28 0 7 -29 42 -65 77 -45 45 -65 72 -65 89 0 24 3 22 48 -22 46 -46
82 -60 82 -34 0 7 -29 42 -65 77 -45 45 -65 72 -65 89 0 24 3 22 48 -22 47
-46 82 -60 82 -33 0 12 -130 147 -149 154 -12 4 -151 -134 -151 -151 0 -28 23
-19 75 28 46 42 50 43 53 23 3 -17 -12 -37 -62 -83 -65 -60 -83 -95 -49 -95
10 0 39 21 65 47 45 44 48 46 48 23 0 -17 -22 -47 -71 -96 -62 -63 -68 -72
-54 -84 14 -11 22 -7 63 33 52 51 62 56 62 30 0 -10 -32 -49 -71 -89 -62 -63
-68 -72 -54 -84 14 -11 22 -7 63 33 26 26 51 47 55 47 4 0 7 -56 7 -125 l0
-126 -82 3 -83 3 -13 70 c-9 48 -12 123 -9 235 4 136 9 182 31 262 72 271 233
512 452 676 159 119 376 208 564 231 81 10 253 5 364 -10z m65 -1034 l-76 -76
-87 86 c-49 47 -90 85 -93 85 -2 0 -44 -38 -91 -85 l-87 -84 -72 72 c-40 39
-73 74 -73 77 0 3 73 79 162 169 l162 162 165 -165 166 -166 -76 -75z m108
294 c73 -45 105 -141 71 -214 l-12 -26 -118 118 c-114 113 -117 118 -95 130
36 20 115 16 154 -8z"/>
<path d="M921 2544 c-12 -15 -21 -34 -21 -44 0 -34 39 -70 75 -70 36 0 75 36
75 70 0 34 -39 70 -75 70 -24 0 -39 -7 -54 -26z"/>
<path d="M3982 2554 c-28 -20 -31 -83 -4 -107 45 -40 122 -6 122 53 0 59 -67
90 -118 54z"/>
<path d="M1318 2113 c-31 -8 -19 -30 20 -37 56 -9 265 -7 281 3 8 5 11 16 8
25 -5 14 -27 16 -149 15 -79 -1 -151 -3 -160 -6z"/>
<path d="M1833 2104 c-3 -9 0 -20 8 -25 8 -5 114 -9 235 -9 182 0 224 3 234
15 26 31 1 35 -236 35 -206 0 -235 -2 -241 -16z"/>
<path d="M2413 2104 c-3 -9 0 -20 8 -25 8 -5 140 -9 295 -9 283 0 310 3 297
36 -4 11 -59 14 -299 14 -261 0 -295 -2 -301 -16z"/>
<path d="M1368 1993 c-31 -8 -19 -30 20 -37 65 -10 550 -7 557 4 4 6 1 17 -5
25 -10 13 -57 15 -284 14 -149 -1 -279 -3 -288 -6z"/>
<path d="M2150 1985 c-9 -10 -10 -19 -3 -26 6 -6 117 -8 289 -7 271 3 279 4
279 23 0 19 -8 20 -276 23 -240 2 -278 0 -289 -13z"/>
<path d="M2924 1985 c-3 -8 -3 -19 1 -25 4 -6 118 -10 341 -10 298 0 335 2
341 16 3 9 0 20 -8 25 -8 5 -162 9 -342 9 -277 0 -328 -2 -333 -15z"/>
<path d="M1422 1853 c3 -17 31 -18 433 -18 376 0 430 2 430 15 0 13 -56 15
-433 18 -409 2 -433 1 -430 -15z"/>
<path d="M2385 1860 c-17 -27 18 -30 406 -30 392 0 399 0 399 20 0 20 -7 20
-399 20 -256 0 -402 -4 -406 -10z"/>
<path d="M1795 1739 c-4 -6 -3 -15 2 -20 5 -5 197 -8 469 -7 400 3 459 5 459
18 0 13 -59 15 -462 18 -327 1 -464 -1 -468 -9z"/>
<path d="M2825 1740 c-17 -27 17 -30 316 -30 302 0 309 0 309 20 0 20 -7 20
-309 20 -196 0 -312 -4 -316 -10z"/>
<path d="M2255 1620 c-17 -27 17 -30 351 -30 324 0 345 1 342 18 -3 16 -29 17
-345 20 -223 1 -344 -1 -348 -8z"/>
<path d="M1777 1495 c-4 -8 -1 -18 6 -22 7 -4 159 -9 338 -11 282 -3 327 -1
338 12 7 8 10 20 6 26 -4 6 -120 10 -345 10 -288 0 -339 -2 -343 -15z"/>
<path d="M2814 1495 c-3 -8 -3 -19 1 -25 8 -12 334 -14 354 -1 8 5 11 16 8 25
-6 14 -30 16 -182 16 -144 0 -177 -3 -181 -15z"/>
<path d="M2387 1379 c-14 -8 -16 -14 -6 -25 9 -11 59 -14 271 -14 266 0 312 6
287 36 -9 11 -58 14 -273 14 -164 0 -268 -5 -279 -11z"/>
<path d="M2925 1133 c-28 -7 -62 -41 -69 -69 -10 -39 19 -93 59 -109 30 -13
39 -13 69 -1 105 44 52 207 -59 179z m78 -45 c23 -27 22 -80 -2 -102 -28 -26
-80 -24 -103 4 -62 76 40 173 105 98z"/>
<path d="M2245 1080 c-5 -9 -24 -135 -25 -162 0 -29 18 -20 22 10 2 21 9 28
30 30 20 2 32 -5 53 -32 34 -44 53 -47 28 -5 -14 24 -15 33 -5 36 42 15 53 57
25 92 -18 22 -119 46 -128 31z"/>
</g>
</svg>
